# xmcd
#
# Track frame offsets: 
#        150
#        20528
#        44115
#        62428
#        85001
#        108183
#        135318
#        147868
#        166716
#        181111
#        193756
#        211914
#        230681
#        244826
#        268788
#        285062
#        301337
#        319915
#
# Disc length: 4666 seconds
#
# Revision: 2
# Processed by: cddbd v1.5.2PL0 Copyright (c) Steve Scherf et al.
# Submitted via: ExactAudioCopy v1.0b3
#
DISCID=f1123812
DTITLE=John Kay - Forgotten Songs and Unsung Heroes - My Sportin' Life (
DTITLE=UK BGOCD797)
DYEAR=2008
DGENRE=Rock
TTITLE0=Many A Mile
TTITLE1=Walk Beside Me
TTITLE2=You Win Again
TTITLE3=To Be Alive
TTITLE4=Bold Marauder
TTITLE5=Two Of A Kind
TTITLE6=Walkin' Blues
TTITLE7=Somebody
TTITLE8=I'm Movin' On
TTITLE9=Moonshine (Friend Of Mine)
TTITLE10=Nobody Lives Here Anymore
TTITLE11=Drift Away
TTITLE12=Heroes And Devils
TTITLE13=My Sportin' Life
TTITLE14=Easy Evil
TTITLE15=Giles Of Te River
TTITLE16=Dance To My Song
TTITLE17=Sing With The Children
EXTD=Forgotten songs and unsung heroes - My sportin' life
EXTT0=
EXTT1=
EXTT2=
EXTT3=
EXTT4=
EXTT5=
EXTT6=
EXTT7=
EXTT8=
EXTT9=
EXTT10=
EXTT11=
EXTT12=
EXTT13=
EXTT14=
EXTT15=
EXTT16=
EXTT17=
PLAYORDER=
